<?xml version="1.0" encoding="iso-8859-1"?>
<!-- Generator: Adobe Illustrator 16.0.0, SVG Export Plug-In . SVG Version: 6.00 Build 0)  -->
<!DOCTYPE svg PUBLIC "-//W3C//DTD SVG 1.1//EN" "http://www.w3.org/Graphics/SVG/1.1/DTD/svg11.dtd">
<svg version="1.1" id="Capa_1" xmlns="http://www.w3.org/2000/svg" xmlns:xlink="http://www.w3.org/1999/xlink" x="0px" y="0px"
	 width="612px" height="612px" viewBox="0 0 612 612" style="enable-background:new 0 0 612 612;" xml:space="preserve">
<g>
	<g id="_x31__26_">
		<g>
			<path d="M420.75,286.875h-95.625V191.25c0-10.557-8.568-19.125-19.125-19.125c-10.557,0-19.125,8.568-19.125,19.125v95.625
				H191.25c-10.557,0-19.125,8.568-19.125,19.125c0,10.557,8.568,19.125,19.125,19.125h95.625v95.625
				c0,10.557,8.568,19.125,19.125,19.125c10.557,0,19.125-8.568,19.125-19.125v-95.625h95.625c10.557,0,19.125-8.568,19.125-19.125
				C439.875,295.443,431.307,286.875,420.75,286.875z M535.5,0h-459C34.253,0,0,34.253,0,76.5v459C0,577.747,34.253,612,76.5,612
				h459c42.247,0,76.5-34.253,76.5-76.5v-459C612,34.253,577.747,0,535.5,0z M573.75,535.5c0,21.133-17.136,38.25-38.25,38.25h-459
				c-21.133,0-38.25-17.117-38.25-38.25v-459c0-21.133,17.117-38.25,38.25-38.25h459c21.114,0,38.25,17.136,38.25,38.25V535.5z"/>
		</g>
	</g>
</g>
<g>
</g>
<g>
</g>
<g>
</g>
<g>
</g>
<g>
</g>
<g>
</g>
<g>
</g>
<g>
</g>
<g>
</g>
<g>
</g>
<g>
</g>
<g>
</g>
<g>
</g>
<g>
</g>
<g>
</g>
</svg>
