<svg xmlns="http://www.w3.org/2000/svg" width="612" height="612" viewBox="0 0 612 612"><path d="M591.6 367.2c-11.261 0-20.399 9.139-20.399 20.399V530.4H40.8V387.6c0-11.261-9.139-20.399-20.4-20.399S0 376.339 0 387.6v163.2c0 11.261 9.139 20.4 20.4 20.4h571.2c11.261 0 20.4-9.14 20.4-20.4V387.6c0-11.261-9.14-20.4-20.4-20.4zm-300.206 75.684c4.039 4.039 9.302 6.039 14.606 6.039s10.567-2 14.606-5.998l122.277-142.678c8.038-8.038 8.038-21.093 0-29.131-8.037-8.038-21.053-8.038-29.131 0L326.4 373.075V61.2c0-11.261-9.14-20.4-20.4-20.4s-20.4 9.14-20.4 20.4v311.875l-87.394-101.959c-8.038-8.038-21.053-8.038-29.131 0-8.038 8.038-8.038 21.093 0 29.131l122.319 142.637z"/></svg>