<?xml version="1.0" encoding="UTF-8" standalone="no"?>
<!-- Creator: CorelDRAW X6 -->

<svg
   xmlns:dc="http://purl.org/dc/elements/1.1/"
   xmlns:cc="http://creativecommons.org/ns#"
   xmlns:rdf="http://www.w3.org/1999/02/22-rdf-syntax-ns#"
   xmlns:svg="http://www.w3.org/2000/svg"
   xmlns="http://www.w3.org/2000/svg"
   xmlns:sodipodi="http://sodipodi.sourceforge.net/DTD/sodipodi-0.dtd"
   xmlns:inkscape="http://www.inkscape.org/namespaces/inkscape"
   xml:space="preserve"
   width="1.9570445mm"
   height="1.008477mm"
   version="1.1"
   style="clip-rule:evenodd;fill-rule:evenodd;image-rendering:optimizeQuality;shape-rendering:geometricPrecision;text-rendering:geometricPrecision"
   viewBox="0 0 195.66192 101"
   id="svg2"
   inkscape:version="0.91 r13725"
   sodipodi:docname="right-arrow.svg"><metadata
     id="metadata14"><rdf:RDF><cc:Work
         rdf:about=""><dc:format>image/svg+xml</dc:format><dc:type
           rdf:resource="http://purl.org/dc/dcmitype/StillImage" /><dc:title></dc:title></cc:Work></rdf:RDF></metadata><sodipodi:namedview
     pagecolor="#ffffff"
     bordercolor="#666666"
     borderopacity="1"
     objecttolerance="10"
     gridtolerance="10"
     guidetolerance="10"
     inkscape:pageopacity="0"
     inkscape:pageshadow="2"
     inkscape:window-width="1600"
     inkscape:window-height="949"
     id="namedview12"
     showgrid="false"
     fit-margin-top="0"
     fit-margin-left="0"
     fit-margin-right="0"
     fit-margin-bottom="0"
     inkscape:zoom="30.792341"
     inkscape:cx="-4.0833738"
     inkscape:cy="1.768982"
     inkscape:window-x="-9"
     inkscape:window-y="-9"
     inkscape:window-maximized="1"
     inkscape:current-layer="svg2" /><defs
     id="defs4"><style
       type="text/css"
       id="style6"><![CDATA[
    .fil1 {fill:none}
    .fil0 {fill:#1C1B17}
   ]]></style></defs><g
     id="Слой_x0020_1"
     transform="translate(-132.3974,-12)"><metadata
       id="CorelCorpID_0Corel-Layer" /><polygon
       class="fil0"
       points="214,49 203,43 195,38 187,31 181,22 177,12 172,21 166,29 158,36 150,40 141,42 132,43 132,83 142,83 150,86 160,90 167,97 172,105 178,113 182,104 188,95 194,89 203,82 215,77 227,73 256,68 328,63 256,58 227,53 "
       id="polygon10"
       style="fill:#1c1b17" /></g></svg>