<?xml version='1.0' encoding='iso-8859-1'?>
<svg version="1.1" xmlns="http://www.w3.org/2000/svg" viewBox="0 0 470 470" xmlns:xlink="http://www.w3.org/1999/xlink" enable-background="new 0 0 470 470">
  <g>
    <path d="m430,65.524h-165c-4.143,0-7.5,3.357-7.5,7.5s3.357,7.5 7.5,7.5h165c13.785,0 25,11.215 25,25v8.808c-6.854-5.504-15.546-8.808-25-8.808h-187.5v-32.5c0-22.056-17.944-40-40-40h-162.5c-22.056,0-40,17.944-40,40v356.451c0,4.143 3.357,7.5 7.5,7.5h455c4.143,0 7.5-3.357 7.5-7.5v-323.951c0-22.055-17.944-40-40-40zm25,356.452h-440v-348.952c0-13.785 11.215-25 25-25h162.5c13.785,0 25,11.215 25,25v40c0,4.143 3.357,7.5 7.5,7.5h195c13.785,0 25,11.215 25,25v276.452z"/>
    <path d="m337.218,264.864c20.688,0 37.519-16.831 37.519-37.519s-16.831-37.518-37.519-37.518-37.518,16.83-37.518,37.518 16.83,37.519 37.518,37.519zm0-60.036c12.417,0 22.519,10.102 22.519,22.518 0,12.417-10.102,22.519-22.519,22.519-12.416,0-22.518-10.102-22.518-22.519-5.68434e-14-12.416 10.102-22.518 22.518-22.518z"/>
    <path d="m337.218,279.864c-10.181,0-20.277,2.528-29.198,7.313-3.65,1.957-5.023,6.503-3.065,10.153 1.957,3.649 6.501,5.026 10.153,3.065 6.749-3.618 14.395-5.531 22.11-5.531 23.313,0 42.708,17.096 46.31,39.407h-46.31c-4.143,0-7.5,3.357-7.5,7.5s3.357,7.5 7.5,7.5h54.408c4.143,0 7.5-3.357 7.5-7.5-1.13687e-13-34.135-27.772-61.907-61.908-61.907z"/>
    <path d="m133.448,334.271h-46.975c3.602-22.312 22.997-39.407 46.31-39.407 7.715,0 15.359,1.912 22.106,5.529 3.651,1.961 8.198,0.586 10.153-3.065 1.958-3.65 0.585-8.196-3.065-10.153-8.919-4.783-19.015-7.311-29.194-7.311-34.137,0-61.908,27.771-61.908,61.907 0,4.143 3.357,7.5 7.5,7.5h55.074c4.143,0 7.5-3.357 7.5-7.5s-3.358-7.5-7.501-7.5z"/>
    <path d="m132.782,264.864c20.688,0 37.518-16.831 37.518-37.519s-16.83-37.518-37.518-37.518-37.519,16.83-37.519,37.518 16.832,37.519 37.519,37.519zm0-60.036c12.416,0 22.518,10.102 22.518,22.518 0,12.417-10.102,22.519-22.518,22.519-12.417,0-22.519-10.102-22.519-22.519 0.001-12.416 10.102-22.518 22.519-22.518z"/>
    <path d="m235,267.575c26.636,0 48.306-21.67 48.306-48.306s-21.67-48.306-48.306-48.306-48.306,21.67-48.306,48.306 21.67,48.306 48.306,48.306zm0-81.611c18.365,0 33.306,14.94 33.306,33.306s-14.94,33.306-33.306,33.306-33.306-14.94-33.306-33.306 14.941-33.306 33.306-33.306z"/>
    <path d="m235,282.575c-44.917,0-81.46,36.543-81.46,81.461 0,4.143 3.357,7.5 7.5,7.5h147.921c4.143,0 7.5-3.357 7.5-7.5 0-44.918-36.543-81.461-81.461-81.461zm-66.039,73.961c3.735-33.131 31.927-58.961 66.039-58.961s62.305,25.83 66.04,58.961h-132.079z"/>
  </g>
</svg>
