<svg xmlns="http://www.w3.org/2000/svg" width="341.387" height="341.387" viewBox="0 0 341.387 341.387"><path d="M269.081 209.189c-22.713 0-42.777 11.521-54.68 29.021l-83.612-46.31c4.839-9.184 7.609-19.61 7.609-30.69 0-10.775-2.645-20.926-7.238-29.922l63.472-27.617c11.939 17.215 31.816 28.523 54.307 28.523 36.445 0 66.098-29.652 66.098-66.098C315.036 29.65 285.386 0 248.938 0c-36.443 0-66.092 29.65-66.092 66.096 0 7.488 1.309 14.658 3.611 21.373l-65.929 28.688C108.456 103.247 91.33 95.112 72.3 95.112c-36.443 0-66.093 29.652-66.093 66.098s29.649 66.099 66.093 66.099c18.812 0 35.772-7.939 47.821-20.601l86.27 47.776c-2.18 6.551-3.404 13.531-3.404 20.803 0 36.445 29.65 66.1 66.094 66.1 36.445 0 66.098-29.652 66.098-66.1 0-36.445-29.653-66.098-66.098-66.098zM248.938 18.116c26.455 0 47.979 21.523 47.979 47.98 0 26.459-21.523 47.98-47.979 47.98s-47.979-21.521-47.979-47.98c.003-26.457 21.524-47.98 47.979-47.98zM72.301 209.189c-26.454 0-47.977-21.522-47.977-47.979 0-26.459 21.522-47.98 47.977-47.98 26.456 0 47.98 21.521 47.98 47.98.001 26.457-21.524 47.979-47.98 47.979zm196.78 114.079c-26.455 0-47.977-21.523-47.977-47.98 0-26.459 21.521-47.979 47.977-47.979s47.98 21.52 47.98 47.979c.001 26.456-21.525 47.98-47.98 47.98z"/></svg>