<?xml version="1.0" encoding="iso-8859-1"?>
<!-- Generator: Adobe Illustrator 19.1.0, SVG Export Plug-In . SVG Version: 6.00 Build 0)  -->
<svg version="1.1" id="Capa_1" xmlns="http://www.w3.org/2000/svg" xmlns:xlink="http://www.w3.org/1999/xlink" x="0px" y="0px"
	 viewBox="0 0 34.057 34.057" style="enable-background:new 0 0 34.057 34.057;" xml:space="preserve">
<g>
	<g>
		<path d="M17.028,32.558c-6.632,0-12.534-4.211-14.688-10.479c-0.16-0.463,0.087-0.969,0.551-1.127
			c0.462-0.16,0.968,0.086,1.127,0.551c1.908,5.551,7.137,9.279,13.011,9.279c7.585,0,13.755-6.17,13.755-13.754
			c0-0.49,0.398-0.889,0.888-0.889c0.49,0,0.887,0.398,0.887,0.889C32.558,25.591,25.592,32.558,17.028,32.558z" fill="#000000"/>
	</g>
	<g>
		<path  d="M2.386,17.916c-0.489,0-0.887-0.396-0.887-0.887c0-8.562,6.967-15.529,15.529-15.529
			c6.63,0,12.532,4.209,14.688,10.475c0.159,0.463-0.087,0.969-0.551,1.129c-0.465,0.158-0.969-0.088-1.128-0.551
			c-1.909-5.551-7.137-9.279-13.01-9.279c-7.584,0-13.755,6.172-13.755,13.756C3.273,17.519,2.876,17.916,2.386,17.916z" fill="#000000"/>
	</g>
	<g>
		<path d="M30.842,13.332c-0.087,0-0.177-0.014-0.265-0.041l-6.163-1.93
			c-0.467-0.147-0.727-0.645-0.581-1.113c0.146-0.467,0.646-0.727,1.111-0.582l5.379,1.686l2.021-5.066
			c0.182-0.455,0.699-0.678,1.153-0.494c0.455,0.182,0.678,0.697,0.496,1.152l-2.328,5.83
			C31.528,13.117,31.196,13.332,30.842,13.332z" fill="#000000"/>
	</g>
	<g>
		<path d="M0.887,28.332c-0.109,0-0.221-0.021-0.328-0.065c-0.455-0.182-0.677-0.697-0.495-1.152l2.327-5.83
			c0.172-0.432,0.646-0.658,1.089-0.518l6.163,1.93c0.468,0.146,0.727,0.644,0.581,1.111c-0.146,0.469-0.645,0.729-1.111,0.582
			l-5.378-1.684l-2.023,5.066C1.573,28.119,1.239,28.332,0.887,28.332z"  fill="#000000"/>
	</g>
</g>
<g>
</g>
<g>
</g>
<g>
</g>
<g>
</g>
<g>
</g>
<g>
</g>
<g>
</g>
<g>
</g>
<g>
</g>
<g>
</g>
<g>
</g>
<g>
</g>
<g>
</g>
<g>
</g>
<g>
</g>
</svg>
