<?xml version="1.0" encoding="iso-8859-1"?>
<!-- Generator: Adobe Illustrator 16.0.0, SVG Export Plug-In . SVG Version: 6.00 Build 0)  -->
<!DOCTYPE svg PUBLIC "-//W3C//DTD SVG 1.1//EN" "http://www.w3.org/Graphics/SVG/1.1/DTD/svg11.dtd">
<svg version="1.1" id="Capa_1" xmlns="http://www.w3.org/2000/svg" xmlns:xlink="http://www.w3.org/1999/xlink" x="0px" y="0px"
	 width="37.853px" height="37.853px" viewBox="0 0 37.853 37.853" style="enable-background:new 0 0 37.853 37.853;"
	 xml:space="preserve">
<g>
	<path d="M34.087,0H8.755v30.318L3.764,34.91l1.354,1.473l0.677,0.736l0,0l0.678,0.733l5.141-4.729h22.475L34.087,0L34.087,0z
		 M32.087,31.125H13.786l0.907-0.836l-0.678-0.734l1.967-1.809c1.477,1.253,3.36,1.961,5.313,1.961c2.062,0,4.035-0.771,5.555-2.168
		c3.33-3.064,3.549-8.269,0.484-11.598c-1.551-1.685-3.752-2.649-6.042-2.649c-2.062,0-4.036,0.771-5.555,2.167
		c-3.082,2.835-3.492,7.496-1.111,10.814l-1.966,1.81l-0.678-0.735l-1.229,1.131V2h21.333L32.087,31.125L32.087,31.125z
		 M16.728,25.701c-2.316-2.519-2.152-6.452,0.365-8.771c1.149-1.059,2.642-1.641,4.201-1.641c1.731,0,3.397,0.73,4.569,2.004
		c2.315,2.521,2.151,6.452-0.367,8.771c-1.147,1.059-2.639,1.641-4.199,1.641C19.566,27.707,17.9,26.977,16.728,25.701z M28.421,7
		h-14.25V5h14.25V7z M28.421,12.25h-14.25v-2h14.25V12.25z"/>
</g>
<g>
</g>
<g>
</g>
<g>
</g>
<g>
</g>
<g>
</g>
<g>
</g>
<g>
</g>
<g>
</g>
<g>
</g>
<g>
</g>
<g>
</g>
<g>
</g>
<g>
</g>
<g>
</g>
<g>
</g>
</svg>
