<?xml version="1.0" encoding="UTF-8" standalone="no"?>
<!-- Created with Inkscape (http://www.inkscape.org/) -->

<svg
   xmlns:dc="http://purl.org/dc/elements/1.1/"
   xmlns:cc="http://creativecommons.org/ns#"
   xmlns:rdf="http://www.w3.org/1999/02/22-rdf-syntax-ns#"
   xmlns:svg="http://www.w3.org/2000/svg"
   xmlns="http://www.w3.org/2000/svg"
   xmlns:sodipodi="http://sodipodi.sourceforge.net/DTD/sodipodi-0.dtd"
   xmlns:inkscape="http://www.inkscape.org/namespaces/inkscape"
   width="125.40625"
   height="88.218803"
   id="svg2"
   version="1.1"
   inkscape:version="0.48.4 r9939"
   sodipodi:docname="Czerka.svg">
  <defs
     id="defs4" />
  <sodipodi:namedview
     id="base"
     pagecolor="#ffffff"
     bordercolor="#666666"
     borderopacity="1.0"
     inkscape:pageopacity="0.0"
     inkscape:pageshadow="2"
     inkscape:zoom="5"
     inkscape:cx="80.170858"
     inkscape:cy="37.756072"
     inkscape:document-units="px"
     inkscape:current-layer="layer1"
     showgrid="false"
     fit-margin-top="5"
     fit-margin-left="5"
     fit-margin-right="5"
     fit-margin-bottom="5"
     showguides="false"
     inkscape:snap-object-midpoints="true"
     inkscape:snap-global="true"
     inkscape:snap-bbox="true"
     inkscape:object-paths="false"
     inkscape:snap-intersection-paths="false"
     inkscape:object-nodes="true"
     inkscape:window-width="1920"
     inkscape:window-height="1017"
     inkscape:window-x="1358"
     inkscape:window-y="-8"
     inkscape:window-maximized="1">
    <inkscape:grid
       type="xygrid"
       id="grid3770"
       empspacing="5"
       visible="true"
       enabled="true"
       snapvisiblegridlinesonly="true"
       originx="-269.09375px"
       originy="-266.8125px" />
  </sodipodi:namedview>
  <metadata
     id="metadata7">
    <rdf:RDF>
      <cc:Work
         rdf:about="">
        <dc:format>image/svg+xml</dc:format>
        <dc:type
           rdf:resource="http://purl.org/dc/dcmitype/StillImage" />
        <dc:title></dc:title>
      </cc:Work>
    </rdf:RDF>
  </metadata>
  <g
     inkscape:label="Layer 1"
     inkscape:groupmode="layer"
     id="layer1"
     transform="translate(-275.95091,-519.04518)"
     style="display:inline">
    <path
       style="opacity:1;fill:#000000;fill-opacity:1;stroke:none"
       d="m 313.21875,161.96875 c -21.59828,0 -39.125,17.49547 -39.125,39.09375 0,21.59828 17.52672,39.125 39.125,39.125 8.95935,0 17.22108,-3.02239 23.8125,-8.09375 0.70832,0.0189 1.40941,0.0312 2.125,0.0312 27.80614,0 50.34375,-14.46004 50.34375,-32.28125 0,-17.82121 -22.53761,-32.25 -50.34375,-32.25 -1.82689,0 -3.6297,0.066 -5.40625,0.1875 -5.96468,-3.68487 -13.00203,-5.8125 -20.53125,-5.8125 z m 0,4.46875 c 4.41287,0 8.61925,0.83968 12.5,2.34375 -12.44312,2.20048 -22.94529,7.35681 -29.53125,14.25 7.88853,-2.04469 17.29435,-3.25 27.40625,-3.25 6.309,0 12.34141,0.4681 17.90625,1.3125 3.60075,5.09223 5.87449,11.20208 6.28125,17.8125 -27.31016,-0.55828 -49.73311,-3.19479 -67.875,-7.25 4.09633,-14.55503 17.44516,-25.21875 33.3125,-25.21875 z m 34.21875,15.71875 c 15.77721,3.38732 26.5,10.04504 26.5,17.6875 0,7.41048 -10.09809,13.86955 -25.09375,17.34375 2.22682,-4.91852 3.46875,-10.37566 3.46875,-16.125 0,-0.0105 10e-6,-0.0207 0,-0.0312 C 354.51587,201.0129 356.73479,201 359,201 l 0,-2 c -2.28676,0 -4.52626,-0.004 -6.75,-0.0312 -0.32219,-6.0765 -2.02817,-11.78431 -4.8125,-16.8125 z m -0.875,18.9375 c 0.41966,-0.007 0.85927,0.006 1.28125,0 -0.006,6.28434 -1.69473,12.16765 -4.625,17.25 -6.03135,1.01849 -12.66162,1.5625 -19.625,1.5625 -10.11078,0 -19.51826,-1.17448 -27.40625,-3.21875 7.27482,7.61418 19.33306,13.14915 33.5,14.875 -4.89752,2.65653 -10.50638,4.15625 -16.46875,4.15625 -16.62617,0 -30.49714,-11.74411 -33.84375,-27.375 17.96967,-4.78057 40.15331,-6.80489 67.1875,-7.25 z"
       transform="translate(6.8571625,362.07648)"
       id="path3772"
       inkscape:connector-curvature="0" />
  </g>
</svg>
