<?xml version="1.0" encoding="UTF-8" standalone="no"?><!DOCTYPE svg PUBLIC "-//W3C//DTD SVG 1.0//EN"
	"http://www.w3.org/TR/2001/REC-SVG-20010904/DTD/svg10.dtd"><svg
   xmlns:svg="http://www.w3.org/2000/svg"
   xmlns="http://www.w3.org/2000/svg"
   version="1.0"
   width="602.82397"
   height="600"
   id="svg2191">
  <defs
     id="defs2193" />
  <g
     transform="translate(-261.88007,373.75587)"
     id="layer1">
    <g
       id="g3129">
      <rect
         width="602.82397"
         height="600"
         x="261.88007"
         y="-373.75586"
         style="opacity:1;fill:#b26b00;fill-opacity:1;stroke:none;stroke-opacity:1"
         id="rect2158" />
      <path
         d="M 590.31919,-373.75587 C 649.77861,-298.08007 712.64902,-281.8678 752.48129,-227.80994 C 769.80074,-204.30483 783.1741,-179.71147 792.1773,-154.33018 L 833.5623,-206.1883 C 855.18398,-162.94495 920.04874,47.86574 757.88666,177.59548 C 767.79942,132.9886 782.18697,83.76744 767.85288,50.90634 C 755.248,71.71573 739.38534,92.4273 720.04885,112.73068 L 649.77861,42.460441 C 725.45419,-54.836902 698.42731,-184.56665 590.31919,-227.80994 L 590.31919,-373.75587 z M 536.26498,-373.75587 L 536.26498,-227.80994 C 428.15686,-184.56665 401.12987,-54.836902 476.80562,42.460441 L 406.53539,112.73068 C 387.19874,92.4273 371.33612,71.71573 358.73129,50.90634 C 344.39697,83.76744 358.78477,132.9886 368.69751,177.59548 C 206.53541,47.86574 271.40012,-162.94495 293.02187,-206.1883 L 334.40687,-154.33018 C 343.40998,-179.71147 356.78339,-204.30483 374.10287,-227.80994 C 413.93499,-281.8678 476.80562,-298.08007 536.26498,-373.75587 z M 563.29208,42.460441 C 614.01641,42.460441 655.18402,83.62794 655.18402,134.35219 C 655.18402,185.07652 614.01641,226.24413 563.29208,226.24413 C 512.56776,226.24413 471.40015,185.07652 471.40015,134.35219 C 471.40015,83.62794 512.56776,42.460441 563.29208,42.460441 z "
         style="fill:#f8e000;fill-opacity:1;stroke-opacity:1"
         id="path2484" />
    </g>
  </g>
</svg>
