<svg xmlns="http://www.w3.org/2000/svg" viewBox="0 0 792 792"><path d="M641.475 792h-490.95c-25.924 0-46.964-21.129-46.964-46.964V46.964C103.561 21.041 124.69 0 150.525 0h490.949c25.924 0 46.964 21.129 46.964 46.964v697.983c.001 25.924-21.04 47.053-46.963 47.053zM150.525 35.512c-6.747 0-11.541 4.794-11.541 11.541v697.983c0 6.747 4.794 11.541 11.541 11.541h490.949c6.747 0 11.541-4.794 11.541-11.541V46.964c0-6.747-4.794-11.541-11.541-11.541H150.525v.089zm420.992 520.601c0-9.588-7.635-17.223-17.223-17.223H348.059c-9.588 0-17.223 7.635-17.223 17.223s7.635 17.223 17.223 17.223h205.169c9.588.089 18.289-7.634 18.289-17.223zm0 106.447c0-9.588-7.635-17.223-17.223-17.223H348.059c-9.588 0-17.223 7.635-17.223 17.223s7.635 17.223 17.223 17.223h205.169c9.588 0 18.289-7.635 18.289-17.223zm0-211.916c0-9.588-7.635-17.223-17.223-17.223H348.059c-9.588 0-17.223 7.635-17.223 17.223s7.635 17.223 17.223 17.223h205.169c9.588.976 18.289-6.659 18.289-17.223zm0-104.494c0-9.588-7.635-17.223-17.223-17.223H348.059c-9.588 0-17.223 7.635-17.223 17.223s7.635 17.223 17.223 17.223h205.169c9.588.001 18.289-7.634 18.289-17.223zm-1.953-104.493c0-9.588-7.635-17.223-17.223-17.223H348.148c-9.588 0-17.223 7.635-17.223 17.223s7.635 17.223 17.223 17.223H552.34c9.589 0 17.224-7.635 17.224-17.223zm0-105.47c0-9.588-7.635-17.223-17.223-17.223H348.148c-9.588 0-17.223 7.635-17.223 17.223s7.635 17.223 17.223 17.223H552.34c9.589.977 17.224-7.634 17.224-17.223zm-330.792 31.606l44.123-44.123c6.747-6.747 6.747-18.2 0-24.947s-18.2-6.747-24.947 0l-31.605 31.694-5.771-5.771c-6.747-6.747-18.2-6.747-24.947 0s-6.747 18.2 0 24.947l18.2 18.2c3.818 3.818 7.635 4.794 12.429 4.794 3.906 0 8.7-1.864 12.518-4.794zm0 108.399l44.123-44.123c6.747-6.747 6.747-18.2 0-24.947s-18.2-6.747-24.947 0l-31.605 31.605-5.771-5.771c-6.747-6.747-18.2-6.747-24.947 0s-6.747 18.2 0 24.947l18.2 18.2c2.841 2.841 7.635 4.794 12.429 4.794 3.906.089 8.7-1.864 12.518-4.705zm0 104.494l44.123-44.123c6.747-6.747 6.747-18.2 0-24.947s-18.2-6.747-24.947 0l-31.605 31.605-5.771-5.771c-6.747-6.747-18.2-6.747-24.947 0s-6.747 18.2 0 24.947l18.2 18.2c2.841 2.841 7.635 4.794 12.429 4.794 3.906.089 8.7-.888 12.518-4.705zm0 104.493l44.123-44.123c6.747-6.747 6.747-18.2 0-24.947s-18.2-6.747-24.947 0l-31.605 31.605-6.747-5.771c-6.747-6.747-18.2-6.747-24.947 0s-6.747 18.2 0 24.947l18.2 18.2c2.841 2.841 7.635 4.794 12.429 4.794 4.882 1.065 9.676-.888 13.494-4.705zm0 105.47l44.123-44.123c6.747-6.747 6.747-18.2 0-24.947s-18.2-6.747-24.947 0l-31.605 31.605-5.771-5.771c-6.747-6.747-18.2-6.747-24.947 0s-6.747 18.2 0 24.947l18.2 18.2c2.841 2.841 7.635 4.794 12.429 4.794 3.906.089 8.7-1.864 12.518-4.705zm0 105.469l44.123-44.123c6.747-6.747 6.747-18.2 0-24.947s-18.2-6.747-24.947 0l-31.605 31.605-6.747-5.771c-6.747-6.747-18.2-6.747-24.947 0s-6.747 18.2 0 24.947l18.2 18.2c3.817 3.818 7.635 4.794 12.429 4.794 4.882 1.066 9.676-.887 13.494-4.705z" fill="#E7E5E6"/></svg>