<svg xmlns="http://www.w3.org/2000/svg" viewBox="0 0 1024 1024">
<path d="M932.254 490.726L772.835 331.315c-11.754-11.755-30.775-11.771-42.53-.094-11.786 11.684-11.896 30.748-.267 42.582L836.411 482H408.187c-16.636 0-30.132 13.357-30.132 30s13.497 30 30.132 30H838.2L730.21 650.055c-11.755 11.763-11.755 30.887 0 42.649a30.08 30.08 0 0 0 21.312 8.848c7.706 0 15.427-2.933 21.312-8.818l159.419-159.406a30.129 30.129 0 0 0 8.82-21.302c0-7.987-3.17-15.651-8.819-21.3z" fill="#E7E5E6"/><path d="M698.927 787.552c-16.636 0-30 13.489-30 30.132V964h-526V60h526v146.376c0 16.643 13.364 30.132 30 30.132 16.635 0 30-13.489 30-30.132V29.914C728.927 13.27 715.238 0 698.603 0H113.032C96.397 0 82.927 13.27 82.927 29.914v964.233c0 16.643 13.47 29.854 30.106 29.854h585.571c16.635 0 30.324-13.21 30.324-29.854V817.684c-.001-16.643-13.366-30.132-30.001-30.132z"  fill="#E7E5E6"/></svg>