<svg xmlns="http://www.w3.org/2000/svg" viewBox="0 0 24.077 24.077"><path d="M2 6.577v4.461h16.189l1.396-1.395a1.133 1.133 0 0 1 1.597 0l1.396 1.395h1.499v2h-1.5l-1.394 1.394c-.44.44-1.158.44-1.597 0l-1.395-1.394H2V17.5h1.42l1.397-1.396a1.133 1.133 0 0 1 1.597 0L7.811 17.5h16.266v2H7.808l-1.395 1.394a1.13 1.13 0 0 1-1.596 0L3.422 19.5H2v4.538H0v-24h2v4.539h6.958l1.396-1.396a1.133 1.133 0 0 1 1.597 0l1.397 1.396h10.729v2h-10.73l-1.395 1.394a1.13 1.13 0 0 1-1.596 0L8.96 6.577H2z" fill="#030104"/></svg>