<?xml version="1.0" encoding="iso-8859-1"?>
<!-- Generator: Adobe Illustrator 18.1.1, SVG Export Plug-In . SVG Version: 6.00 Build 0)  -->
<svg version="1.1" id="Capa_1" xmlns="http://www.w3.org/2000/svg" xmlns:xlink="http://www.w3.org/1999/xlink" x="0px" y="0px"
	 viewBox="0 0 1024 1024" style="enable-background:new 0 0 1024 1024;" xml:space="preserve">
<g>
	<path d="M932.254,490.726L772.835,331.315c-11.754-11.755-30.775-11.771-42.53-0.094c-11.786,11.684-11.896,30.748-0.267,42.582
		L836.411,482H408.187c-16.636,0-30.132,13.357-30.132,30s13.497,30,30.132,30H838.2L730.21,650.055
		c-11.755,11.763-11.755,30.887,0,42.649c5.885,5.885,13.606,8.848,21.312,8.848c7.706,0,15.427-2.933,21.312-8.818l159.419-159.406
		c5.649-5.65,8.82-13.314,8.82-21.302C941.073,504.039,937.903,496.375,932.254,490.726z"/>
	<path d="M698.927,787.552c-16.636,0-30,13.489-30,30.132V964h-526V60h526v146.376c0,16.643,13.364,30.132,30,30.132
		c16.635,0,30-13.489,30-30.132V29.914C728.927,13.27,715.238,0,698.603,0H113.032C96.397,0,82.927,13.27,82.927,29.914v964.233
		c0,16.643,13.47,29.854,30.106,29.854h585.571c16.635,0,30.324-13.21,30.324-29.854V817.684
		C728.927,801.041,715.562,787.552,698.927,787.552z"/>
</g>
<g>
</g>
<g>
</g>
<g>
</g>
<g>
</g>
<g>
</g>
<g>
</g>
<g>
</g>
<g>
</g>
<g>
</g>
<g>
</g>
<g>
</g>
<g>
</g>
<g>
</g>
<g>
</g>
<g>
</g>
</svg>
