<?xml version="1.0" encoding="iso-8859-1"?>
<!-- Generator: Adobe Illustrator 18.1.1, SVG Export Plug-In . SVG Version: 6.00 Build 0)  -->
<svg version="1.1" id="Capa_1" xmlns="http://www.w3.org/2000/svg" xmlns:xlink="http://www.w3.org/1999/xlink" x="0px" y="0px"
	 viewBox="0 0 792 792" style="enable-background:new 0 0 792 792;" xml:space="preserve">
<g>
	<path d="M641.475,792H150.525c-25.924,0-46.964-21.129-46.964-46.964V46.964C103.561,21.041,124.69,0,150.525,0h490.949
		c25.924,0,46.964,21.129,46.964,46.964v697.983C688.439,770.871,667.398,792,641.475,792z M150.525,35.512
		c-6.747,0-11.541,4.794-11.541,11.541v697.983c0,6.747,4.794,11.541,11.541,11.541h490.949c6.747,0,11.541-4.794,11.541-11.541
		V46.964c0-6.747-4.794-11.541-11.541-11.541H150.525V35.512z M571.517,556.113c0-9.588-7.635-17.223-17.223-17.223H348.059
		c-9.588,0-17.223,7.635-17.223,17.223s7.635,17.223,17.223,17.223h205.169C562.816,573.425,571.517,565.702,571.517,556.113z
		 M571.517,662.56c0-9.588-7.635-17.223-17.223-17.223H348.059c-9.588,0-17.223,7.635-17.223,17.223
		c0,9.588,7.635,17.223,17.223,17.223h205.169C562.816,679.783,571.517,672.148,571.517,662.56z M571.517,450.644
		c0-9.588-7.635-17.223-17.223-17.223H348.059c-9.588,0-17.223,7.635-17.223,17.223s7.635,17.223,17.223,17.223h205.169
		C562.816,468.843,571.517,461.208,571.517,450.644z M571.517,346.15c0-9.588-7.635-17.223-17.223-17.223H348.059
		c-9.588,0-17.223,7.635-17.223,17.223c0,9.588,7.635,17.223,17.223,17.223h205.169C562.816,363.374,571.517,355.739,571.517,346.15
		z M569.564,241.657c0-9.588-7.635-17.223-17.223-17.223H348.148c-9.588,0-17.223,7.635-17.223,17.223s7.635,17.223,17.223,17.223
		H552.34C561.929,258.88,569.564,251.245,569.564,241.657z M569.564,136.187c0-9.588-7.635-17.223-17.223-17.223H348.148
		c-9.588,0-17.223,7.635-17.223,17.223c0,9.588,7.635,17.223,17.223,17.223H552.34C561.929,154.387,569.564,145.776,569.564,136.187
		z M238.772,167.793l44.123-44.123c6.747-6.747,6.747-18.2,0-24.947c-6.747-6.747-18.2-6.747-24.947,0l-31.605,31.694l-5.771-5.771
		c-6.747-6.747-18.2-6.747-24.947,0c-6.747,6.747-6.747,18.2,0,24.947l18.2,18.2c3.818,3.818,7.635,4.794,12.429,4.794
		C230.16,172.587,234.954,170.723,238.772,167.793z M238.772,276.192l44.123-44.123c6.747-6.747,6.747-18.2,0-24.947
		c-6.747-6.747-18.2-6.747-24.947,0l-31.605,31.605l-5.771-5.771c-6.747-6.747-18.2-6.747-24.947,0
		c-6.747,6.747-6.747,18.2,0,24.947l18.2,18.2c2.841,2.841,7.635,4.794,12.429,4.794l0,0
		C230.16,280.986,234.954,279.033,238.772,276.192z M238.772,380.686l44.123-44.123c6.747-6.747,6.747-18.2,0-24.947
		c-6.747-6.747-18.2-6.747-24.947,0l-31.605,31.605l-5.771-5.771c-6.747-6.747-18.2-6.747-24.947,0
		c-6.747,6.747-6.747,18.2,0,24.947l18.2,18.2c2.841,2.841,7.635,4.794,12.429,4.794l0,0
		C230.16,385.48,234.954,384.503,238.772,380.686z M238.772,485.179l44.123-44.123c6.747-6.747,6.747-18.2,0-24.947
		c-6.747-6.747-18.2-6.747-24.947,0l-31.605,31.605l-6.747-5.771c-6.747-6.747-18.2-6.747-24.947,0
		c-6.747,6.747-6.747,18.2,0,24.947l18.2,18.2c2.841,2.841,7.635,4.794,12.429,4.794l0,0
		C230.16,490.949,234.954,488.996,238.772,485.179z M238.772,590.649l44.123-44.123c6.747-6.747,6.747-18.2,0-24.947
		c-6.747-6.747-18.2-6.747-24.947,0l-31.605,31.605l-5.771-5.771c-6.747-6.747-18.2-6.747-24.947,0
		c-6.747,6.747-6.747,18.2,0,24.947l18.2,18.2c2.841,2.841,7.635,4.794,12.429,4.794l0,0
		C230.16,595.443,234.954,593.49,238.772,590.649z M238.772,696.118l44.123-44.123c6.747-6.747,6.747-18.2,0-24.947
		c-6.747-6.747-18.2-6.747-24.947,0l-31.605,31.605l-6.747-5.771c-6.747-6.747-18.2-6.747-24.947,0
		c-6.747,6.747-6.747,18.2,0,24.947l18.2,18.2c3.817,3.818,7.635,4.794,12.429,4.794
		C230.16,701.889,234.954,699.936,238.772,696.118z"/>
</g>
<g>
</g>
<g>
</g>
<g>
</g>
<g>
</g>
<g>
</g>
<g>
</g>
<g>
</g>
<g>
</g>
<g>
</g>
<g>
</g>
<g>
</g>
<g>
</g>
<g>
</g>
<g>
</g>
<g>
</g>
</svg>
