<svg xmlns="http://www.w3.org/2000/svg" viewBox="0 0 398.508 398.508"><path d="M314.38 157.492c-23.028 0-41.763 18.734-41.763 41.762s18.734 41.762 41.763 41.762c23.027 0 41.762-18.734 41.762-41.762 0-23.027-18.734-41.762-41.762-41.762zm0 64.524c-12.552 0-22.763-10.211-22.763-22.762s10.211-22.762 22.763-22.762c12.551 0 22.762 10.211 22.762 22.762s-10.211 22.762-22.762 22.762zm0 92.968c-23.028 0-41.763 18.734-41.763 41.762s18.734 41.762 41.763 41.762c23.027 0 41.762-18.734 41.762-41.762s-18.734-41.762-41.762-41.762zm0 64.524c-12.552 0-22.763-10.211-22.763-22.762s10.211-22.762 22.763-22.762c12.551 0 22.762 10.211 22.762 22.762s-10.211 22.762-22.762 22.762zm0-295.984c23.027 0 41.762-18.734 41.762-41.762S337.408 0 314.38 0s-41.763 18.734-41.763 41.762c.001 23.028 18.735 41.762 41.763 41.762zm0-64.524c12.551 0 22.762 10.211 22.762 22.762s-10.211 22.762-22.762 22.762c-12.552 0-22.763-10.211-22.763-22.762S301.829 19 314.38 19zm-58.863 32.262c5.247 0 9.5-4.253 9.5-9.5s-4.253-9.5-9.5-9.5h-35.998a9.5 9.5 0 0 0-9.5 9.5v147.992H185.02c-5.247 0-9.5 4.253-9.5 9.5s4.253 9.5 9.5 9.5h24.999v147.992a9.5 9.5 0 0 0 9.5 9.5h35.998c5.247 0 9.5-4.253 9.5-9.5s-4.253-9.5-9.5-9.5h-26.498V208.754h26.498c5.247 0 9.5-4.253 9.5-9.5s-4.253-9.5-9.5-9.5h-26.498V51.262h26.498zm-129.528 91.246c8.234-7.633 13.4-18.531 13.4-30.617 0-23.028-18.734-41.762-41.762-41.762S55.865 88.863 55.865 111.89c0 12.086 5.166 22.984 13.4 30.617-16.1 9.669-26.899 27.297-26.899 47.406v41.971c0 9.296 5.544 17.322 13.5 20.944v56.76c0 10.361 8.43 18.791 18.791 18.791h45.942c10.361 0 18.791-8.43 18.791-18.791v-56.76c7.955-3.623 13.499-11.648 13.499-20.944v-41.971c0-20.108-10.8-37.737-26.9-47.405zM74.865 111.89c0-12.551 10.211-22.762 22.762-22.762s22.762 10.211 22.762 22.762-10.211 22.762-22.762 22.762-22.762-10.211-22.762-22.762zm59.024 119.995a4.004 4.004 0 0 1-3.999 3.999 9.5 9.5 0 0 0-9.5 9.5v63.997h-13.262v-54.932c0-5.247-4.253-9.5-9.5-9.5s-9.5 4.253-9.5 9.5v54.932H74.866v-63.997a9.5 9.5 0 0 0-9.5-9.5 4.004 4.004 0 0 1-3.999-3.999v-41.971c0-19.994 16.267-36.261 36.261-36.261s36.261 16.267 36.261 36.261v41.971z"/></svg>