<svg xmlns="http://www.w3.org/2000/svg" viewBox="0 0 276.715 276.715"><path d="M138.357 0C62.066 0 0 62.066 0 138.357s62.066 138.357 138.357 138.357 138.357-62.066 138.357-138.357S214.648 0 138.357 0zm0 258.715C71.992 258.715 18 204.723 18 138.357S71.992 18 138.357 18s120.357 53.992 120.357 120.357-53.991 120.358-120.357 120.358z"/><path d="M194.798 160.903a9.003 9.003 0 0 0-12.432 2.732c-8.694 13.593-23.503 21.708-39.614 21.708-25.908 0-46.985-21.078-46.985-46.986s21.077-46.986 46.985-46.986c15.633 0 30.2 7.747 38.968 20.723a9 9 0 0 0 14.914-10.078c-12.118-17.937-32.262-28.645-53.882-28.645-35.833 0-64.985 29.152-64.985 64.986s29.152 64.986 64.985 64.986c22.281 0 42.759-11.218 54.778-30.009a9 9 0 0 0-2.732-12.431z"/></svg>