<?xml version="1.0" encoding="iso-8859-1"?>
<!-- Generator: Adobe Illustrator 16.0.0, SVG Export Plug-In . SVG Version: 6.00 Build 0)  -->
<!DOCTYPE svg PUBLIC "-//W3C//DTD SVG 1.1//EN" "http://www.w3.org/Graphics/SVG/1.1/DTD/svg11.dtd">
<svg version="1.1" id="Capa_1" xmlns="http://www.w3.org/2000/svg" xmlns:xlink="http://www.w3.org/1999/xlink" x="0px" y="0px"
	 width="612px" height="612px" viewBox="0 0 612 612" style="enable-background:new 0 0 612 612;" xml:space="preserve">
<g>
	<g id="web_-_download_arrow">
		<g>
			<path d="M591.6,367.2c-11.261,0-20.399,9.139-20.399,20.399V530.4H40.8V387.6c0-11.261-9.139-20.399-20.4-20.399
				S0,376.339,0,387.6v163.2c0,11.261,9.139,20.4,20.4,20.4h571.2c11.261,0,20.4-9.14,20.4-20.4V387.6
				C612,376.339,602.86,367.2,591.6,367.2z M291.394,442.884c4.039,4.039,9.302,6.039,14.606,6.039c5.304,0,10.567-2,14.606-5.998
				l122.277-142.678c8.038-8.038,8.038-21.093,0-29.131c-8.037-8.038-21.053-8.038-29.131,0L326.4,373.075V61.2
				c0-11.261-9.14-20.4-20.4-20.4s-20.4,9.14-20.4,20.4v311.875l-87.394-101.959c-8.038-8.038-21.053-8.038-29.131,0
				c-8.038,8.038-8.038,21.093,0,29.131L291.394,442.884z"/>
		</g>
	</g>
</g>
<g>
</g>
<g>
</g>
<g>
</g>
<g>
</g>
<g>
</g>
<g>
</g>
<g>
</g>
<g>
</g>
<g>
</g>
<g>
</g>
<g>
</g>
<g>
</g>
<g>
</g>
<g>
</g>
<g>
</g>
</svg>
