<svg xmlns="http://www.w3.org/2000/svg" viewBox="0 0 43.974 43.974"><path d="M2.226 35.285c.136 1.262 1.192 2.302 2.457 2.419l32.679 3.017.23.011c.667 0 1.276-.263 1.716-.741a2.325 2.325 0 0 0 .599-1.793l-.128-1.54 4.169-28.727a2.372 2.372 0 0 0-.542-1.897 2.372 2.372 0 0 0-1.799-.808H19.952c-.151-.004-.492-.151-.599-.258l-.502-.53c-.665-.705-1.808-1.196-2.777-1.196H8.025c-1.225 0-2.389.892-2.709 2.074l-1.859 6.887h-1.06a2.41 2.41 0 0 0-1.791.788 2.409 2.409 0 0 0-.592 1.867l2.212 20.427zM8.174 6.242h7.9c.151.004.492.151.599.258l.502.53c.666.705 1.808 1.196 2.777 1.196h20.921L38.672 23.39l-.918-11.023a2.602 2.602 0 0 0-2.578-2.372H14.984c-1.03 0-2.182.576-2.799 1.399l-.453.603a.895.895 0 0 1-.406.207H6.564l1.61-5.962zm3.153 8.962c1.03 0 2.182-.576 2.799-1.399l.453-.602a.895.895 0 0 1 .406-.207h19.811l2.056 24.666-31.667-2.923-2.117-19.535h8.259z" fill="#010002"/></svg>