<?xml version="1.0" encoding="iso-8859-1"?>
<!-- Generator: Adobe Illustrator 18.1.1, SVG Export Plug-In . SVG Version: 6.00 Build 0)  -->
<svg version="1.1" id="Capa_1" xmlns="http://www.w3.org/2000/svg" xmlns:xlink="http://www.w3.org/1999/xlink" x="0px" y="0px"
	 viewBox="0 0 43.974 43.974" style="enable-background:new 0 0 43.974 43.974;" xml:space="preserve">
<g>
	<g>
		<path style="fill:#010002;" d="M2.226,35.285c0.136,1.262,1.192,2.302,2.457,2.419l32.679,3.017l0.23,0.011
			c0.667,0,1.276-0.263,1.716-0.741c0.443-0.482,0.656-1.118,0.599-1.793l-0.128-1.54l4.169-28.727
			c0.1-0.692-0.097-1.383-0.542-1.897c-0.444-0.513-1.1-0.808-1.799-0.808H19.952c-0.151-0.004-0.492-0.151-0.599-0.258l-0.502-0.53
			c-0.665-0.705-1.808-1.196-2.777-1.196H8.025c-1.225,0-2.389,0.892-2.709,2.074l-1.859,6.887h-1.06
			c-0.688,0-1.341,0.288-1.791,0.788c-0.45,0.502-0.666,1.182-0.592,1.867L2.226,35.285z M8.174,6.242h7.9
			c0.151,0.004,0.492,0.151,0.599,0.258l0.502,0.53c0.666,0.705,1.808,1.196,2.777,1.196h20.921L38.672,23.39l-0.918-11.023
			c-0.111-1.33-1.243-2.372-2.578-2.372H14.984c-1.03,0-2.182,0.576-2.799,1.399l-0.453,0.603c-0.073,0.082-0.305,0.199-0.406,0.207
			H6.564L8.174,6.242z M11.327,15.204c1.03,0,2.182-0.576,2.799-1.399l0.453-0.602c0.073-0.082,0.305-0.199,0.406-0.207h19.811
			l2.056,24.666L5.185,34.739L3.068,15.204H11.327z"/>
	</g>
</g>
<g>
</g>
<g>
</g>
<g>
</g>
<g>
</g>
<g>
</g>
<g>
</g>
<g>
</g>
<g>
</g>
<g>
</g>
<g>
</g>
<g>
</g>
<g>
</g>
<g>
</g>
<g>
</g>
<g>
</g>
</svg>
