<?xml version="1.0" encoding="iso-8859-1"?>
<!-- Generator: Adobe Illustrator 18.1.1, SVG Export Plug-In . SVG Version: 6.00 Build 0)  -->
<svg version="1.1" id="Capa_1" xmlns="http://www.w3.org/2000/svg" xmlns:xlink="http://www.w3.org/1999/xlink" x="0px" y="0px"
	 viewBox="0 0 24.077 24.077" style="enable-background:new 0 0 24.077 24.077;" xml:space="preserve">
<g>
	<path style="fill:#030104;" d="M2,6.577v4.461h16.189l1.396-1.395c0.44-0.439,1.158-0.439,1.597,0l1.396,1.395h1.499v2h-1.5
		l-1.394,1.394c-0.44,0.44-1.158,0.44-1.597,0l-1.395-1.394H2V17.5h1.42l1.397-1.396c0.44-0.439,1.158-0.439,1.597,0L7.811,17.5
		h16.266v2H7.808l-1.395,1.394c-0.439,0.44-1.157,0.44-1.596,0L3.422,19.5H2v4.538H0.077H0v-24h0.077H2v4.539h6.958l1.396-1.396
		c0.44-0.439,1.158-0.439,1.597,0l1.397,1.396h10.729v2h-10.73l-1.395,1.394c-0.439,0.44-1.157,0.44-1.596,0L8.96,6.577H2z"/>
</g>
<g>
</g>
<g>
</g>
<g>
</g>
<g>
</g>
<g>
</g>
<g>
</g>
<g>
</g>
<g>
</g>
<g>
</g>
<g>
</g>
<g>
</g>
<g>
</g>
<g>
</g>
<g>
</g>
<g>
</g>
</svg>
